#!OML:ASF H:\BabyWalks\Project 1\Capture day 1\Session 1\baby.ASF
:FULLY-SPECIFIED
:DEGREES
614
root 17.7463 17.6984 -11.1209 411.433 89.1242 406.403
lowerback 20.7781 -2.07639 -4.56301
upperback 3.67936 -3.5511 -1.07517
thorax -7.37484 -1.50844 2.35528
lowerneck -2.19772 1.1917 3.59877
upperneck -9.03306 1.76306 -0.0195917
head -2.44231 0.832647 -0.645347
rclavicle 3.33958e-014 -7.15625e-015
rhumerus -57.4105 4.41866 -76.9236
rradius 36.5257
rwrist 12.9636
rhand 2.30751 -21.0149
rfingers 7.12502
rthumb 27.7986 -48.979
lclavicle 3.33958e-014 -7.15625e-015
lhumerus -24.8015 -12.0972 74.9763
lradius 74.4392
lwrist -3.80864
lhand -12.2932 2.99299
lfingers 7.12502
lthumb 13.7745 32.517
rfemur -30.9997 3.37805 15.8499
rtibia 34.6256
rfoot -21.6954 -3.18596
rtoes -15.3987
lfemur -6.34628 -11.2122 -19.8736
ltibia 30.4687
lfoot -24.763 -12.3059
ltoes 1.42971
615
root 17.9469 17.7211 -11.0839 458.29 89.2406 453.32
lowerback 20.6396 -2.30295 -4.56261
upperback 3.64623 -3.82477 -0.83133
thorax -7.30064 -1.64207 2.68258
lowerneck -2.12054 1.2312 3.79975
upperneck -8.8269 1.76769 -0.578283
head -2.38274 0.841075 -0.856711
rclavicle 4.37326e-015 3.18055e-015
rhumerus -58.0228 4.30656 -76.0749
rradius 36.5582
rwrist 12.2176
rhand 2.36144 -21.1536
rfingers 7.12502
rthumb 27.8502 -49.1093
lclavicle 4.37326e-015 3.18055e-015
lhumerus -24.1571 -12.8365 74.88
lradius 75.6109
lwrist -3.65714
lhand -12.3976 2.91302
lfingers 7.12502
lthumb 13.6738 32.4438
rfemur -30.9562 3.85517 15.3819
rtibia 32.1218
rfoot -21.8293 -3.97935
rtoes -15.3056
lfemur -5.11447 -11.4396 -19.9321
ltibia 29.3551
lfoot -24.1944 -12.8616
ltoes 1.6331
616
root 18.1488 17.7398 -11.0462 494.368 88.8618 489.456
lowerback 20.4868 -2.53774 -4.54346
upperback 3.59844 -4.10544 -0.579013
thorax -7.23226 -1.77965 3.00823
lowerneck -2.03382 1.27187 3.9736
upperneck -8.60387 1.77639 -1.1345
head -2.31999 0.85223 -1.06319
rclavicle 2.20651e-014 -1.51076e-014
rhumerus -58.6439 4.25785 -75.2689
rradius 36.6526
rwrist 11.3577
rhand 2.34798 -21.2875
rfingers 7.12502
rthumb 27.8373 -49.2453
lclavicle 2.20651e-014 -1.51076e-014
lhumerus -23.5258 -13.5241 74.7675
lradius 76.6729
lwrist -3.4562
lhand -12.395 2.93796
lfingers 7.12502
lthumb 13.6763 32.4686
rfemur -30.9231 4.46615 14.8338
rtibia 29.8902
rfoot -21.9268 -4.87418
rtoes -15.0264
lfemur -3.90917 -11.6457 -19.9622
ltibia 28.2699
lfoot -23.6388 -13.4451
ltoes 1.79142
617
root 18.3518 17.7533 -11.0081 509.598 88.2576 504.743
lowerback 20.3195 -2.77519 -4.51257
upperback 3.54016 -4.38748 -0.325151
thorax -7.16556 -1.91839 3.32699
lowerneck -1.96854 1.31136 4.10749
upperneck -8.34694 1.78625 -1.66857
head -2.24303 0.86466 -1.25561
rclavicle 3.55825e-014 3.97569e-015
rhumerus -59.262 4.25812 -74.5055
rradius 36.7931
rwrist 10.4312
rhand 2.3038 -21.4233
rfingers 7.12502
rthumb 27.7951 -49.3879
lclavicle 3.55825e-014 3.97569e-015
lhumerus -22.9039 -14.155 74.6391
lradius 77.639
lwrist -3.18329
lhand -12.299 3.03894
lfingers 7.12502
lthumb 13.7689 32.5633
rfemur -30.9105 5.20567 14.2039
rtibia 27.9796
rfoot -21.9606 -5.89565
rtoes -14.5357
lfemur -2.73346 -11.8351 -19.976
ltibia 27.2313
lfoot -23.1062 -14.0539
ltoes 1.8895
618
root 18.5555 17.7607 -10.9695 516.679 87.5838 511.878
lowerback 20.1353 -3.01142 -4.47272
upperback 3.47117 -4.66667 -0.0727047
thorax -7.09995 -2.05623 3.63595
lowerneck -1.91753 1.35061 4.20493
upperneck -8.06837 1.79926 -2.18192
head -2.15703 0.879036 -1.43519
rclavicle -6.10269e-014 2.70347e-014
rhumerus -59.8708 4.30793 -73.7952
rradius 36.9577
rwrist 9.4711
rhand 2.22635 -21.5545
rfingers 7.12502
rthumb 27.721 -49.531
lclavicle -6.10269e-014 2.70347e-014
lhumerus -22.2952 -14.7183 74.4992
lradius 78.521
lwrist -2.83822
lhand -12.0739 3.19206
lfingers 7.12502
lthumb 13.9858 32.7016
rfemur -30.9312 6.04653 13.5129
rtibia 26.4204
rfoot -21.9242 -7.01966
rtoes -13.8598
lfemur -1.60098 -12.012 -19.9724
ltibia 26.2609
lfoot -22.6122 -14.6796
ltoes 1.90448
619
root 18.7598 17.7614 -10.9304 520.404 86.8905 515.658
lowerback 19.9314 -3.2397 -4.43035
upperback 3.39567 -4.93569 0.172062
thorax -7.03029 -2.18969 3.92973
lowerneck -1.89123 1.38765 4.26744
upperneck -7.763 1.81307 -2.66738
head -2.05852 0.893785 -1.59947
rclavicle 3.39922e-014 -1.51076e-014
rhumerus -60.4614 4.39551 -73.1456
rradius 37.1279
rwrist 8.50242
rhand 2.11848 -21.6802
rfingers 7.12502
rthumb 27.6179 -49.6733
lclavicle 3.39922e-014 -1.51076e-014
lhumerus -21.7045 -15.2103 74.3516
lradius 79.3301
lwrist -2.41381
lhand -11.7409 3.36218
lfingers 7.12502
lthumb 14.3067 32.8493
rfemur -30.9836 6.94729 12.786
rtibia 25.2212
rfoot -21.8591 -8.15415
rtoes -12.9456
lfemur -0.51732 -12.1776 -19.9572
ltibia 25.3803
lfoot -22.1678 -15.313
ltoes 1.82811
620
root 18.9646 17.7544 -10.8908 522.358 86.1999 517.672
lowerback 19.7114 -3.45523 -4.39857
upperback 3.31852 -5.19124 0.402843
thorax -6.9531 -2.31702 4.20804
lowerneck -1.89454 1.42388 4.30229
upperneck -7.43863 1.8297 -3.12556
head -1.94909 0.909531 -1.74983
rclavicle 2.90226e-014 7.95139e-016
rhumerus -61.0214 4.51654 -72.5633
rradius 37.2891
rwrist 7.54796
rhand 1.99715 -21.8022
rfingers 7.12502
rthumb 27.5019 -49.8138
lclavicle 2.90226e-014 7.95139e-016
lhumerus -21.1297 -15.6311 74.1974
lradius 80.0668
lwrist -1.91299
lhand -11.3189 3.52153
lfingers 7.12502
lthumb 14.7133 32.9794
rfemur -31.054 7.82004 12.0632
rtibia 24.3691
rfoot -21.7633 -9.17668
rtoes -11.9572
lfemur 0.517744 -12.3329 -19.9429
ltibia 24.6069
lfoot -21.7808 -15.9694
ltoes 1.69702
621
root 19.1698 17.7393 -10.8508 523.312 85.5304 518.7
lowerback 19.4771 -3.65347 -4.38306
upperback 3.24346 -5.42879 0.614288
thorax -6.86598 -2.43603 4.46715
lowerneck -1.90702 1.45595 4.3251
upperneck -7.10709 1.84516 -3.56086
head -1.8363 0.923839 -1.89085
rclavicle 1.45113e-014 4.77083e-015
rhumerus -61.5481 4.65553 -72.0512
rradius 37.427
rwrist 6.64308
rhand 1.87413 -21.9104
rfingers 7.12502
rthumb 27.3842 -49.9407
lclavicle 1.45113e-014 4.77083e-015
lhumerus -20.5892 -15.9858 74.037
lradius 80.7413
lwrist -1.36329
lhand -10.8528 3.652
lfingers 7.12502
lthumb 15.1623 33.0765
rfemur -31.12 8.58365 11.3971
rtibia 23.8376
rfoot -21.592 -9.95133
rtoes -11.1029
lfemur 1.5117 -12.4733 -19.9318
ltibia 23.9497
lfoot -21.4553 -16.6536
ltoes 1.54224
622
root 19.3755 17.7154 -10.8102 523.523 84.8931 519.01
lowerback 19.2352 -3.82823 -4.39373
upperback 3.17658 -5.64242 0.80004
thorax -6.76655 -2.54375 4.70471
lowerneck -1.91724 1.48001 4.35268
upperneck -6.79049 1.85396 -3.98329
head -1.72941 0.933882 -2.02931
rclavicle -2.44505e-014 -1.47101e-014
rhumerus -62.0347 4.79641 -71.6069
rradius 37.5375
rwrist 5.80214
rhand 1.73892 -22.0039
rfingers 7.12502
rthumb 27.2549 -50.0546
lclavicle -2.44505e-014 -1.47101e-014
lhumerus -20.0875 -16.28 73.8761
lradius 81.3516
lwrist -0.805928
lhand -10.3597 3.7526
lfingers 7.12502
lthumb 15.6373 33.1406
rfemur -31.1606 9.16426 10.8249
rtibia 23.6023
rfoot -21.2777 -10.3444
rtoes -10.6091
lfemur 2.48166 -12.591 -19.9369
ltibia 23.4066
lfoot -21.1857 -17.3775
ltoes 1.4022
623
root 19.5815 17.6833 -10.7694 523.235 84.299 518.854
lowerback 18.999 -3.97919 -4.43215
upperback 3.12102 -5.83221 0.957877
thorax -6.65882 -2.63999 4.9204
lowerneck -1.91591 1.4961 4.39494
upperneck -6.4928 1.85577 -4.39722
head -1.63121 0.939498 -2.16872
rclavicle 9.18385e-014 -2.00773e-014
rhumerus -62.4743 4.9362 -71.2325
rradius 37.6119
rwrist 5.05411
rhand 1.59629 -22.0786
rfingers 7.12502
rthumb 27.1184 -50.1505
lclavicle 9.18385e-014 -2.00773e-014
lhumerus -19.6378 -16.5107 73.7125
lradius 81.8962
lwrist -0.283153
lhand -9.89004 3.8073
lfingers 7.12502
lthumb 16.0895 33.1593
rfemur -31.1611 9.4995 10.3873
rtibia 23.645
rfoot -20.6755 -10.2284
rtoes -10.6575
lfemur 3.44537 -12.6764 -19.9569
ltibia 22.9651
lfoot -20.9705 -18.1387
ltoes 1.26957
624
root 19.7868 17.6442 -10.728 522.608 83.7478 518.4
lowerback 18.7828 -4.10764 -4.49675
upperback 3.08201 -5.99929 1.08773
thorax -6.54529 -2.72511 5.11483
lowerneck -1.90128 1.50587 4.45008
upperneck -6.2304 1.85259 -4.79731
head -1.54712 0.941933 -2.30736
rclavicle -3.44022e-014 4.12478e-015
rhumerus -62.8555 5.05528 -70.9167
rradius 37.651
rwrist 4.42017
rhand 1.44492 -22.1333
rfingers 7.12502
rthumb 26.9736 -50.2277
lclavicle -3.44022e-014 4.12478e-015
lhumerus -19.2462 -16.6829 73.5478
lradius 82.3824
lwrist 0.172415
lhand -9.45096 3.84596
lfingers 7.12502
lthumb 16.5123 33.1633
rfemur -31.1143 9.55049 10.1052
rtibia 23.9637
rfoot -19.604 -9.6368
rtoes -10.7639
lfemur 4.41849 -12.7273 -19.9881
ltibia 22.6015
lfoot -20.7824 -18.9552
ltoes 1.19728
625
root 19.991 17.5996 -10.6864 521.802 83.2479 517.817
lowerback 18.6055 -4.21469 -4.57456
upperback 3.06144 -6.14256 1.19224
thorax -6.43557 -2.79831 5.28549
lowerneck -1.85667 1.50795 4.5285
upperneck -6.02288 1.84168 -5.19373
head -1.48633 0.940255 -2.45111
rclavicle 3.74958e-014 3.85145e-015
rhumerus -63.1727 5.14171 -70.6501
rradius 37.6528
rwrist 3.92435
rhand 1.27239 -22.1646
rfingers 7.12502
rthumb 26.8085 -50.2845
lclavicle 3.74958e-014 3.85145e-015
lhumerus -18.9186 -16.7996 73.384
lradius 82.8063
lwrist 0.545747
lhand -9.07729 3.87088
lfingers 7.12502
lthumb 16.872 33.1579
rfemur -31.0279 9.34761 9.98287
rtibia 24.5696
rfoot -18.072 -8.58087
rtoes -10.7386
lfemur 5.42373 -12.7402 -20.0191
ltibia 22.2889
lfoot -20.5907 -19.8231
ltoes 1.18593
626
root 20.1936 17.5513 -10.6444 520.904 82.8067 517.199
lowerback 18.4774 -4.3016 -4.65592
upperback 3.0658 -6.26112 1.27548
thorax -6.32934 -2.85921 5.43224
lowerneck -1.76466 1.50039 4.62843
upperneck -5.90156 1.81965 -5.58975
head -1.46218 0.933607 -2.60159
rclavicle 1.82633e-014 -1.43125e-014
rhumerus -63.4091 5.18856 -70.422
rradius 37.6122
rwrist 3.58786
rhand 1.09188 -22.1749
rfingers 7.12502
rthumb 26.6358 -50.3212
lclavicle 1.82633e-014 -1.43125e-014
lhumerus -18.6607 -16.8562 73.2282
lradius 83.1718
lwrist 0.831665
lhand -8.76682 3.9009
lfingers 7.12502
lthumb 17.1709 33.1622
rfemur -30.9191 8.91961 10.0169
rtibia 25.479
rfoot -16.1049 -7.22666
rtoes -10.3061
lfemur 6.47982 -12.7103 -20.0407
ltibia 22.0029
lfoot -20.3895 -20.7098
ltoes 1.1449
627
root 20.3943 17.5008 -10.6025 519.949 82.434 516.592
lowerback 18.4129 -4.36747 -4.73147
upperback 3.09882 -6.35181 1.34096
thorax -6.23168 -2.90604 5.55467
lowerneck -1.6271 1.48507 4.74609
upperneck -5.86981 1.78804 -5.98507
head -1.47555 0.923242 -2.75816
rclavicle 2.61402e-014 -1.41137e-014
rhumerus -63.5517 5.18034 -70.2142
rradius 37.5278
rwrist 3.42386
rhand 0.918301 -22.1743
rfingers 7.12502
rthumb 26.4696 -50.3457
lclavicle 2.61402e-014 -1.41137e-014
lhumerus -18.4785 -16.8564 73.0864
lradius 83.4822
lwrist 1.04067
lhand -8.54582 3.94358
lfingers 7.12502
lthumb 17.3836 33.1862
rfemur -30.797 8.29735 10.2035
rtibia 26.693
rfoot -13.7707 -5.81692
rtoes -9.30839
lfemur 7.59945 -12.6379 -20.049
ltibia 21.7362
lfoot -20.1611 -21.5882
ltoes 1.03348
628
root 20.593 17.4495 -10.5611 519.029 82.1398 516.085
lowerback 18.4117 -4.41674 -4.78534
upperback 3.16382 -6.41654 1.396
thorax -6.13978 -2.94008 5.65232
lowerneck -1.43411 1.46693 4.88567
upperneck -5.94193 1.75236 -6.38568
head -1.5328 0.912547 -2.92425
rclavicle 2.88238e-014 2.18663e-015
rhumerus -63.5782 5.12088 -70.0178
rradius 37.3889
rwrist 3.44263
rhand 0.768896 -22.1643
rfingers 7.12502
rthumb 26.3266 -50.3571
lclavicle 2.88238e-014 2.18663e-015
lhumerus -18.3803 -16.7941 72.9653
lradius 83.7381
lwrist 1.18703
lhand -8.41135 4.00496
lfingers 7.12502
lthumb 17.513 33.2361
rfemur -30.6752 7.55821 10.5238
rtibia 28.1918
rfoot -11.3782 -4.4824
rtoes -7.76041
lfemur 8.77485 -12.5285 -20.0311
ltibia 21.5038
lfoot -19.9001 -22.4374
ltoes 0.827691
